<?xml version="1.0" encoding="UTF-8"?>
<svg xmlns="http://www.w3.org/2000/svg" viewBox="0 0 810 690" width="810" height="690">
  <path d="M180.00,480.00 L180.00,570.00" fill="none" stroke="#004000" stroke-width="5.00"/>
  <path d="M390.00,540.00 L390.00,570.00" fill="none" stroke="#004000" stroke-width="5.00"/>
  <path d="M540.00,540.00 L540.00,570.00" fill="none" stroke="#004000" stroke-width="5.00"/>
  <path d="M300.00,360.00 L540.00,360.00" fill="none" stroke="#004000" stroke-width="5.00"/>
  <path d="M540.00,420.00 L540.00,360.00" fill="none" stroke="#004000" stroke-width="5.00"/>
  <path d="M570.00,360.00 L540.00,360.00" fill="none" stroke="#004000" stroke-width="5.00"/>
  <path d="M540.00,300.00 L540.00,360.00" fill="none" stroke="#004000" stroke-width="5.00"/>
  <path d="M180.00,180.00 L180.00,210.00" fill="none" stroke="#004000" stroke-width="5.00"/>
  <path d="M180.00,240.00 L180.00,210.00" fill="none" stroke="#004000" stroke-width="5.00"/>
  <path d="M390.00,420.00 L390.00,210.00 L180.00,210.00" fill="none" stroke="#004000" stroke-width="5.00"/>
  <rect x="150.00" y="300.00" width="90.00" height="120.00" stroke="#800000" stroke-width="5.00" fill="#c8c8aa"/>
  <line x1="180.00" y1="480.00" x2="180.00" y2="420.00" stroke="#800000" stroke-width="5.00" fill="none"/>
  <text x="155.00" y="399.00" font-family="Arial" font-size="25.0" font-weight="normal" font-style="normal" fill="#000000" text-anchor="start" dominant-baseline="alphabetic">VSS</text>
  <text x="159.00" y="472.00" font-family="Arial" font-size="25.0" font-weight="normal" font-style="normal" fill="#000000" text-anchor="start" dominant-baseline="alphabetic">3</text>
  <line x1="180.00" y1="240.00" x2="180.00" y2="300.00" stroke="#800000" stroke-width="5.00" fill="none"/>
  <text x="159.00" y="337.00" font-family="Arial" font-size="25.0" font-weight="normal" font-style="normal" fill="#000000" text-anchor="start" dominant-baseline="alphabetic">VIN</text>
  <text x="159.00" y="264.00" font-family="Arial" font-size="25.0" font-weight="normal" font-style="normal" fill="#000000" text-anchor="start" dominant-baseline="alphabetic">1</text>
  <line x1="300.00" y1="360.00" x2="240.00" y2="360.00" stroke="#800000" stroke-width="5.00" fill="none"/>
  <text x="156.00" y="368.00" font-family="Arial" font-size="25.0" font-weight="normal" font-style="normal" fill="#000000" text-anchor="start" dominant-baseline="alphabetic">VOUT</text>
  <text x="270.00" y="354.00" font-family="Arial" font-size="25.0" font-weight="normal" font-style="normal" fill="#000000" text-anchor="start" dominant-baseline="alphabetic">2</text>
  <text x="242.00" y="259.00" font-family="Arial" font-size="37.0" font-weight="normal" font-style="normal" fill="#000000" text-anchor="start" dominant-baseline="alphabetic">U1</text>
  <text x="212.00" y="444.00" font-family="Arial" font-size="25.0" font-weight="normal" font-style="normal" fill="#000000" text-anchor="start" dominant-baseline="alphabetic">MCP1541</text>
  <line x1="360.00" y1="471.00" x2="420.00" y2="471.00" stroke="#800000" stroke-width="5.00" fill="none"/>
  <line x1="360.00" y1="489.00" x2="420.00" y2="489.00" stroke="#800000" stroke-width="5.00" fill="none"/>
  <line x1="390.00" y1="489.00" x2="390.00" y2="510.00" stroke="#800000" stroke-width="5.00" fill="none"/>
  <line x1="390.00" y1="471.00" x2="390.00" y2="450.00" stroke="#800000" stroke-width="5.00" fill="none"/>
  <line x1="390.00" y1="420.00" x2="390.00" y2="450.00" stroke="#800000" stroke-width="5.00" fill="none"/>
  <line x1="390.00" y1="540.00" x2="390.00" y2="510.00" stroke="#800000" stroke-width="5.00" fill="none"/>
  <text x="437.00" y="482.00" font-family="Arial" font-size="37.0" font-weight="normal" font-style="normal" fill="#000000" text-anchor="start" dominant-baseline="alphabetic">C1</text>
  <text x="437.00" y="515.00" font-family="Arial" font-size="25.0" font-weight="normal" font-style="normal" fill="#000000" text-anchor="start" dominant-baseline="alphabetic">100nF</text>
  <path d="M165.00,150.00 L180.00,120.00 L195.00,150.00 L165.00,150.00 Z" stroke="#004000" stroke-width="5.00" fill="none"/>
  <line x1="180.00" y1="180.00" x2="180.00" y2="120.00" stroke="#004000" stroke-width="5.00" fill="none"/>
  <text x="150.00" y="98.00" font-family="Arial" font-size="25.0" font-weight="normal" font-style="normal" fill="#000000" text-anchor="start" dominant-baseline="alphabetic">+5V</text>
  <ellipse cx="618.00" cy="360.00" rx="12.00" ry="12.00" stroke="#004000" stroke-width="5.00" fill="none"/>
  <line x1="606.00" y1="360.00" x2="570.00" y2="360.00" stroke="#004000" stroke-width="5.00" fill="none"/>
  <text x="645.00" y="368.00" font-family="Arial" font-size="25.0" font-weight="normal" font-style="normal" fill="#000000" text-anchor="start" dominant-baseline="alphabetic">VREF</text>
  <line x1="510.00" y1="471.00" x2="570.00" y2="471.00" stroke="#800000" stroke-width="5.00" fill="none"/>
  <line x1="510.00" y1="489.00" x2="570.00" y2="489.00" stroke="#800000" stroke-width="5.00" fill="none"/>
  <line x1="540.00" y1="489.00" x2="540.00" y2="510.00" stroke="#800000" stroke-width="5.00" fill="none"/>
  <line x1="540.00" y1="471.00" x2="540.00" y2="450.00" stroke="#800000" stroke-width="5.00" fill="none"/>
  <line x1="540.00" y1="420.00" x2="540.00" y2="450.00" stroke="#800000" stroke-width="5.00" fill="none"/>
  <line x1="540.00" y1="540.00" x2="540.00" y2="510.00" stroke="#800000" stroke-width="5.00" fill="none"/>
  <text x="587.00" y="482.00" font-family="Arial" font-size="37.0" font-weight="normal" font-style="normal" fill="#000000" text-anchor="start" dominant-baseline="alphabetic">C2</text>
  <text x="587.00" y="515.00" font-family="Arial" font-size="25.0" font-weight="normal" font-style="normal" fill="#000000" text-anchor="start" dominant-baseline="alphabetic">0.1uF</text>
  <line x1="180.00" y1="570.00" x2="180.00" y2="600.00" stroke="#004000" stroke-width="5.00" fill="none"/>
  <line x1="150.00" y1="600.00" x2="210.00" y2="600.00" stroke="#004000" stroke-width="5.00" fill="none"/>
  <line x1="165.00" y1="615.00" x2="195.00" y2="615.00" stroke="#004000" stroke-width="5.00" fill="none"/>
  <line x1="177.00" y1="630.00" x2="183.00" y2="630.00" stroke="#004000" stroke-width="5.00" fill="none"/>
  <line x1="390.00" y1="570.00" x2="390.00" y2="600.00" stroke="#004000" stroke-width="5.00" fill="none"/>
  <line x1="360.00" y1="600.00" x2="420.00" y2="600.00" stroke="#004000" stroke-width="5.00" fill="none"/>
  <line x1="375.00" y1="615.00" x2="405.00" y2="615.00" stroke="#004000" stroke-width="5.00" fill="none"/>
  <line x1="387.00" y1="630.00" x2="393.00" y2="630.00" stroke="#004000" stroke-width="5.00" fill="none"/>
  <line x1="540.00" y1="570.00" x2="540.00" y2="600.00" stroke="#004000" stroke-width="5.00" fill="none"/>
  <line x1="510.00" y1="600.00" x2="570.00" y2="600.00" stroke="#004000" stroke-width="5.00" fill="none"/>
  <line x1="525.00" y1="615.00" x2="555.00" y2="615.00" stroke="#004000" stroke-width="5.00" fill="none"/>
  <line x1="537.00" y1="630.00" x2="543.00" y2="630.00" stroke="#004000" stroke-width="5.00" fill="none"/>
  <path d="M585.00,255.00 L555.00,270.00 L570.00,285.00 L585.00,255.00 Z" stroke="#0000c0" stroke-width="2.00" fill="none"/>
  <line x1="561.00" y1="279.00" x2="540.00" y2="300.00" stroke="#0000c0" stroke-width="2.00" fill="none"/>
  <text x="600.00" y="263.00" font-family="Arial" font-size="25.0" font-weight="normal" font-style="normal" fill="#0000c0" text-anchor="start" dominant-baseline="alphabetic">VREF</text>
  <text x="600.00" y="292.00" font-family="Arial" font-size="25.0" font-weight="normal" font-style="normal" fill="#000000" text-anchor="start" dominant-baseline="alphabetic">V=4.096</text>
  <ellipse cx="540.00" cy="360.00" rx="6.00" ry="6.00" stroke="#004000" stroke-width="5.00" fill="#004000"/>
  <ellipse cx="180.00" cy="210.00" rx="6.00" ry="6.00" stroke="#004000" stroke-width="5.00" fill="#004000"/>
</svg>