<?xml version="1.0" encoding="UTF-8"?>
<svg xmlns="http://www.w3.org/2000/svg" viewBox="0 0 1230 690" width="1230" height="690">
  <path d="M780.00,180.00 L780.00,120.00 L810.00,120.00" fill="none" stroke="#004000" stroke-width="5.00"/>
  <path d="M780.00,420.00 L780.00,480.00 L990.00,480.00 L990.00,120.00 L960.00,120.00" fill="none" stroke="#004000" stroke-width="5.00"/>
  <path d="M360.00,540.00 L360.00,570.00" fill="none" stroke="#004000" stroke-width="5.00"/>
  <path d="M540.00,540.00 L540.00,570.00" fill="none" stroke="#004000" stroke-width="5.00"/>
  <path d="M750.00,420.00 L750.00,570.00" fill="none" stroke="#004000" stroke-width="5.00"/>
  <path d="M750.00,180.00 L750.00,90.00" fill="none" stroke="#004000" stroke-width="5.00"/>
  <path d="M1020.00,300.00 L900.00,300.00" fill="none" stroke="#004000" stroke-width="5.00"/>
  <path d="M1020.00,450.00 L810.00,450.00 L810.00,420.00" fill="none" stroke="#004000" stroke-width="5.00"/>
  <path d="M150.00,210.00 L120.00,210.00" fill="none" stroke="#004000" stroke-width="5.00"/>
  <path d="M150.00,390.00 L120.00,390.00" fill="none" stroke="#004000" stroke-width="5.00"/>
  <path d="M540.00,210.00 L660.00,210.00 L660.00,270.00" fill="none" stroke="#004000" stroke-width="5.00"/>
  <path d="M540.00,240.00 L540.00,210.00" fill="none" stroke="#004000" stroke-width="5.00"/>
  <path d="M300.00,390.00 L540.00,390.00" fill="none" stroke="#004000" stroke-width="5.00"/>
  <path d="M540.00,390.00 L660.00,390.00 L660.00,330.00" fill="none" stroke="#004000" stroke-width="5.00"/>
  <path d="M540.00,360.00 L540.00,390.00" fill="none" stroke="#004000" stroke-width="5.00"/>
  <path d="M540.00,420.00 L540.00,390.00" fill="none" stroke="#004000" stroke-width="5.00"/>
  <path d="M300.00,210.00 L360.00,210.00" fill="none" stroke="#004000" stroke-width="5.00"/>
  <path d="M360.00,210.00 L540.00,210.00" fill="none" stroke="#004000" stroke-width="5.00"/>
  <path d="M360.00,420.00 L360.00,210.00" fill="none" stroke="#004000" stroke-width="5.00"/>
  <path d="M720.00,225.00 L720.00,375.00 L840.00,300.00 L720.00,225.00 Z" stroke="#800000" stroke-width="5.00" fill="#c8c8aa"/>
  <line x1="735.00" y1="330.00" x2="753.00" y2="330.00" stroke="#800000" stroke-width="5.00" fill="none"/>
  <line x1="735.00" y1="270.00" x2="753.00" y2="270.00" stroke="#800000" stroke-width="5.00" fill="none"/>
  <line x1="744.00" y1="261.00" x2="744.00" y2="279.00" stroke="#800000" stroke-width="5.00" fill="none"/>
  <line x1="780.00" y1="360.00" x2="780.00" y2="339.00" stroke="#800000" stroke-width="5.00" fill="none"/>
  <line x1="810.00" y1="360.00" x2="810.00" y2="318.00" stroke="#800000" stroke-width="5.00" fill="none"/>
  <line x1="780.00" y1="240.00" x2="780.00" y2="261.00" stroke="#800000" stroke-width="5.00" fill="none"/>
  <line x1="660.00" y1="270.00" x2="720.00" y2="270.00" stroke="#800000" stroke-width="5.00" fill="none"/>
  <text x="676.00" y="264.00" font-family="Arial" font-size="25.0" font-weight="normal" font-style="normal" fill="#000000" text-anchor="start" dominant-baseline="alphabetic">3</text>
  <line x1="660.00" y1="330.00" x2="720.00" y2="330.00" stroke="#800000" stroke-width="5.00" fill="none"/>
  <text x="676.00" y="324.00" font-family="Arial" font-size="25.0" font-weight="normal" font-style="normal" fill="#000000" text-anchor="start" dominant-baseline="alphabetic">2</text>
  <line x1="900.00" y1="300.00" x2="840.00" y2="300.00" stroke="#800000" stroke-width="5.00" fill="none"/>
  <text x="870.00" y="294.00" font-family="Arial" font-size="25.0" font-weight="normal" font-style="normal" fill="#000000" text-anchor="start" dominant-baseline="alphabetic">6</text>
  <line x1="750.00" y1="420.00" x2="750.00" y2="360.00" stroke="#800000" stroke-width="5.00" fill="none"/>
  <text x="772.00" y="404.00" font-family="Arial" font-size="25.0" font-weight="normal" font-style="normal" fill="#000000" text-anchor="start" dominant-baseline="alphabetic" transform="rotate(-90.0,772.00,404.00)">4</text>
  <line x1="750.00" y1="180.00" x2="750.00" y2="240.00" stroke="#800000" stroke-width="5.00" fill="none"/>
  <text x="772.00" y="210.00" font-family="Arial" font-size="25.0" font-weight="normal" font-style="normal" fill="#000000" text-anchor="start" dominant-baseline="alphabetic" transform="rotate(-90.0,772.00,210.00)">7</text>
  <line x1="780.00" y1="420.00" x2="780.00" y2="360.00" stroke="#800000" stroke-width="5.00" fill="none"/>
  <text x="802.00" y="404.00" font-family="Arial" font-size="25.0" font-weight="normal" font-style="normal" fill="#000000" text-anchor="start" dominant-baseline="alphabetic" transform="rotate(-90.0,802.00,404.00)">1</text>
  <line x1="810.00" y1="420.00" x2="810.00" y2="360.00" stroke="#800000" stroke-width="5.00" fill="none"/>
  <text x="832.00" y="404.00" font-family="Arial" font-size="25.0" font-weight="normal" font-style="normal" fill="#000000" text-anchor="start" dominant-baseline="alphabetic" transform="rotate(-90.0,832.00,404.00)">5</text>
  <line x1="780.00" y1="180.00" x2="780.00" y2="240.00" stroke="#800000" stroke-width="5.00" fill="none"/>
  <text x="802.00" y="210.00" font-family="Arial" font-size="25.0" font-weight="normal" font-style="normal" fill="#000000" text-anchor="start" dominant-baseline="alphabetic" transform="rotate(-90.0,802.00,210.00)">8</text>
  <text x="812.00" y="244.00" font-family="Arial" font-size="37.0" font-weight="normal" font-style="normal" fill="#000000" text-anchor="start" dominant-baseline="alphabetic">U2</text>
  <text x="842.00" y="339.00" font-family="Arial" font-size="25.0" font-weight="normal" font-style="normal" fill="#000000" text-anchor="start" dominant-baseline="alphabetic">AD623</text>
  <rect x="840.00" y="108.00" width="90.00" height="24.00" stroke="#800000" stroke-width="5.00" fill="#c8c8aa"/>
  <line x1="810.00" y1="120.00" x2="840.00" y2="120.00" stroke="#800000" stroke-width="5.00" fill="none"/>
  <line x1="960.00" y1="120.00" x2="930.00" y2="120.00" stroke="#800000" stroke-width="5.00" fill="none"/>
  <text x="838.00" y="97.00" font-family="Arial" font-size="37.0" font-weight="normal" font-style="normal" fill="#000000" text-anchor="start" dominant-baseline="alphabetic">RG</text>
  <text x="838.00" y="156.00" font-family="Arial" font-size="25.0" font-weight="normal" font-style="normal" fill="#000000" text-anchor="start" dominant-baseline="alphabetic">50.2</text>
  <line x1="510.00" y1="291.00" x2="570.00" y2="291.00" stroke="#800000" stroke-width="5.00" fill="none"/>
  <line x1="510.00" y1="309.00" x2="570.00" y2="309.00" stroke="#800000" stroke-width="5.00" fill="none"/>
  <line x1="540.00" y1="309.00" x2="540.00" y2="330.00" stroke="#800000" stroke-width="5.00" fill="none"/>
  <line x1="540.00" y1="291.00" x2="540.00" y2="270.00" stroke="#800000" stroke-width="5.00" fill="none"/>
  <line x1="540.00" y1="240.00" x2="540.00" y2="270.00" stroke="#800000" stroke-width="5.00" fill="none"/>
  <line x1="540.00" y1="360.00" x2="540.00" y2="330.00" stroke="#800000" stroke-width="5.00" fill="none"/>
  <text x="587.00" y="302.00" font-family="Arial" font-size="37.0" font-weight="normal" font-style="normal" fill="#000000" text-anchor="start" dominant-baseline="alphabetic">C3</text>
  <text x="587.00" y="335.00" font-family="Arial" font-size="25.0" font-weight="normal" font-style="normal" fill="#000000" text-anchor="start" dominant-baseline="alphabetic">1uF</text>
  <rect x="180.00" y="378.00" width="90.00" height="24.00" stroke="#800000" stroke-width="5.00" fill="#c8c8aa"/>
  <line x1="300.00" y1="390.00" x2="270.00" y2="390.00" stroke="#800000" stroke-width="5.00" fill="none"/>
  <line x1="150.00" y1="390.00" x2="180.00" y2="390.00" stroke="#800000" stroke-width="5.00" fill="none"/>
  <text x="178.00" y="367.00" font-family="Arial" font-size="37.0" font-weight="normal" font-style="normal" fill="#000000" text-anchor="start" dominant-baseline="alphabetic">R2</text>
  <text x="178.00" y="426.00" font-family="Arial" font-size="25.0" font-weight="normal" font-style="normal" fill="#000000" text-anchor="start" dominant-baseline="alphabetic">15.9k</text>
  <line x1="390.00" y1="489.00" x2="330.00" y2="489.00" stroke="#800000" stroke-width="5.00" fill="none"/>
  <line x1="390.00" y1="471.00" x2="330.00" y2="471.00" stroke="#800000" stroke-width="5.00" fill="none"/>
  <line x1="360.00" y1="471.00" x2="360.00" y2="450.00" stroke="#800000" stroke-width="5.00" fill="none"/>
  <line x1="360.00" y1="489.00" x2="360.00" y2="510.00" stroke="#800000" stroke-width="5.00" fill="none"/>
  <line x1="360.00" y1="540.00" x2="360.00" y2="510.00" stroke="#800000" stroke-width="5.00" fill="none"/>
  <line x1="360.00" y1="420.00" x2="360.00" y2="450.00" stroke="#800000" stroke-width="5.00" fill="none"/>
  <text x="407.00" y="482.00" font-family="Arial" font-size="37.0" font-weight="normal" font-style="normal" fill="#000000" text-anchor="start" dominant-baseline="alphabetic">C4</text>
  <text x="407.00" y="515.00" font-family="Arial" font-size="25.0" font-weight="normal" font-style="normal" fill="#000000" text-anchor="start" dominant-baseline="alphabetic">100nF</text>
  <line x1="570.00" y1="489.00" x2="510.00" y2="489.00" stroke="#800000" stroke-width="5.00" fill="none"/>
  <line x1="570.00" y1="471.00" x2="510.00" y2="471.00" stroke="#800000" stroke-width="5.00" fill="none"/>
  <line x1="540.00" y1="471.00" x2="540.00" y2="450.00" stroke="#800000" stroke-width="5.00" fill="none"/>
  <line x1="540.00" y1="489.00" x2="540.00" y2="510.00" stroke="#800000" stroke-width="5.00" fill="none"/>
  <line x1="540.00" y1="540.00" x2="540.00" y2="510.00" stroke="#800000" stroke-width="5.00" fill="none"/>
  <line x1="540.00" y1="420.00" x2="540.00" y2="450.00" stroke="#800000" stroke-width="5.00" fill="none"/>
  <text x="587.00" y="482.00" font-family="Arial" font-size="37.0" font-weight="normal" font-style="normal" fill="#000000" text-anchor="start" dominant-baseline="alphabetic">C5</text>
  <text x="587.00" y="515.00" font-family="Arial" font-size="25.0" font-weight="normal" font-style="normal" fill="#000000" text-anchor="start" dominant-baseline="alphabetic">100nF</text>
  <line x1="360.00" y1="570.00" x2="360.00" y2="600.00" stroke="#004000" stroke-width="5.00" fill="none"/>
  <line x1="330.00" y1="600.00" x2="390.00" y2="600.00" stroke="#004000" stroke-width="5.00" fill="none"/>
  <line x1="345.00" y1="615.00" x2="375.00" y2="615.00" stroke="#004000" stroke-width="5.00" fill="none"/>
  <line x1="357.00" y1="630.00" x2="363.00" y2="630.00" stroke="#004000" stroke-width="5.00" fill="none"/>
  <line x1="540.00" y1="570.00" x2="540.00" y2="600.00" stroke="#004000" stroke-width="5.00" fill="none"/>
  <line x1="510.00" y1="600.00" x2="570.00" y2="600.00" stroke="#004000" stroke-width="5.00" fill="none"/>
  <line x1="525.00" y1="615.00" x2="555.00" y2="615.00" stroke="#004000" stroke-width="5.00" fill="none"/>
  <line x1="537.00" y1="630.00" x2="543.00" y2="630.00" stroke="#004000" stroke-width="5.00" fill="none"/>
  <rect x="180.00" y="198.00" width="90.00" height="24.00" stroke="#800000" stroke-width="5.00" fill="#c8c8aa"/>
  <line x1="300.00" y1="210.00" x2="270.00" y2="210.00" stroke="#800000" stroke-width="5.00" fill="none"/>
  <line x1="150.00" y1="210.00" x2="180.00" y2="210.00" stroke="#800000" stroke-width="5.00" fill="none"/>
  <text x="178.00" y="187.00" font-family="Arial" font-size="37.0" font-weight="normal" font-style="normal" fill="#000000" text-anchor="start" dominant-baseline="alphabetic">R1</text>
  <text x="178.00" y="246.00" font-family="Arial" font-size="25.0" font-weight="normal" font-style="normal" fill="#000000" text-anchor="start" dominant-baseline="alphabetic">15.9k</text>
  <line x1="750.00" y1="570.00" x2="750.00" y2="600.00" stroke="#004000" stroke-width="5.00" fill="none"/>
  <line x1="720.00" y1="600.00" x2="780.00" y2="600.00" stroke="#004000" stroke-width="5.00" fill="none"/>
  <line x1="735.00" y1="615.00" x2="765.00" y2="615.00" stroke="#004000" stroke-width="5.00" fill="none"/>
  <line x1="747.00" y1="630.00" x2="753.00" y2="630.00" stroke="#004000" stroke-width="5.00" fill="none"/>
  <ellipse cx="750.00" cy="42.00" rx="12.00" ry="12.00" stroke="#004000" stroke-width="5.00" fill="none"/>
  <line x1="750.00" y1="54.00" x2="750.00" y2="90.00" stroke="#004000" stroke-width="5.00" fill="none"/>
  <text x="750.00" y="23.00" font-family="Arial" font-size="25.0" font-weight="normal" font-style="normal" fill="#000000" text-anchor="start" dominant-baseline="alphabetic">5V</text>
  <path d="M60.00,198.00 L60.00,222.00 L90.00,210.00 L60.00,198.00 Z" stroke="#004000" stroke-width="5.00" fill="none"/>
  <line x1="90.00" y1="210.00" x2="120.00" y2="210.00" stroke="#004000" stroke-width="5.00" fill="none"/>
  <text x="14.00" y="218.00" font-family="Arial" font-size="25.0" font-weight="normal" font-style="normal" fill="#000000" text-anchor="start" dominant-baseline="alphabetic">VA</text>
  <path d="M60.00,378.00 L60.00,402.00 L90.00,390.00 L60.00,378.00 Z" stroke="#004000" stroke-width="5.00" fill="none"/>
  <line x1="90.00" y1="390.00" x2="120.00" y2="390.00" stroke="#004000" stroke-width="5.00" fill="none"/>
  <text x="12.00" y="398.00" font-family="Arial" font-size="25.0" font-weight="normal" font-style="normal" fill="#000000" text-anchor="start" dominant-baseline="alphabetic">VB</text>
  <path d="M1050.00,288.00 L1050.00,312.00 L1080.00,300.00 L1050.00,288.00 Z" stroke="#004000" stroke-width="5.00" fill="none"/>
  <line x1="1050.00" y1="300.00" x2="1020.00" y2="300.00" stroke="#004000" stroke-width="5.00" fill="none"/>
  <text x="1095.00" y="308.00" font-family="Arial" font-size="25.0" font-weight="normal" font-style="normal" fill="#000000" text-anchor="start" dominant-baseline="alphabetic">OUTPUT</text>
  <path d="M1050.00,438.00 L1050.00,462.00 L1080.00,450.00 L1050.00,438.00 Z" stroke="#004000" stroke-width="5.00" fill="none"/>
  <line x1="1050.00" y1="450.00" x2="1020.00" y2="450.00" stroke="#004000" stroke-width="5.00" fill="none"/>
  <text x="1095.00" y="458.00" font-family="Arial" font-size="25.0" font-weight="normal" font-style="normal" fill="#000000" text-anchor="start" dominant-baseline="alphabetic">REF</text>
  <ellipse cx="540.00" cy="210.00" rx="6.00" ry="6.00" stroke="#004000" stroke-width="5.00" fill="#004000"/>
  <ellipse cx="540.00" cy="390.00" rx="6.00" ry="6.00" stroke="#004000" stroke-width="5.00" fill="#004000"/>
  <ellipse cx="360.00" cy="210.00" rx="6.00" ry="6.00" stroke="#004000" stroke-width="5.00" fill="#004000"/>
</svg>